<?xml version="1.0" encoding="UTF-8"?>
<!-- Created with Inkscape (http://www.inkscape.org/) -->
<svg width="830.34" height="790.01" version="1.1" viewBox="0 0 219.69 209.02" xmlns="http://www.w3.org/2000/svg" xmlns:cc="http://creativecommons.org/ns#" xmlns:dc="http://purl.org/dc/elements/1.1/" xmlns:rdf="http://www.w3.org/1999/02/22-rdf-syntax-ns#">
 <defs>
  <clipPath id="clipPath2177">
   <path d="m0 0h1984.3v1887.9h-1984.3z"/>
  </clipPath>
 </defs>
 <metadata>
  <rdf:RDF>
   <cc:Work rdf:about="">
    <dc:format>image/svg+xml</dc:format>
    <dc:type rdf:resource="http://purl.org/dc/dcmitype/StillImage"/>
    <dc:title/>
   </cc:Work>
  </rdf:RDF>
 </metadata>
 <g transform="translate(215.2 88.602)">
  <g transform="matrix(.35278 0 0 -.35278 9.5755 279.89)">
   <g transform="matrix(.31385 0 0 .31385 -637.16 452.04)">
    <path d="m0 0h1984.3v1887.9h-1984.3z" fill="#ef3620"/>
    <g clip-path="url(#clipPath2177)">
     <g transform="translate(355.15 159.78)">
      <path d="m0 0c98.538 0 155.49 42.871 197.72 101.1l-93.42 66.545c-26.874-32.633-54.388-54.388-101.1-54.388-62.706 0-106.86 52.468-106.86 119.65v1.279c0 65.266 44.15 119.01 106.86 119.01 42.871 0 72.304-21.115 97.899-52.468l93.419 72.304c-39.671 54.388-98.538 92.779-190.04 92.779-135.65 0-235.47-102.38-235.47-232.91v-1.28c0-133.73 103.02-231.63 230.99-231.63m132.45 589.31h-81.902l-50.549-33.912-50.549 33.912h-82.542l78.703-95.339h108.14zm294.97-588.03c108.78 0 181.08 54.388 181.08 145.89v1.279c0 83.822-63.986 117.09-166.36 139.49-62.707 14.076-78.063 23.034-78.063 43.51v1.28c0 16.636 14.717 28.793 44.79 28.793 39.671 0 84.461-14.716 125.41-44.15l62.067 87.661c-48.63 39.031-108.14 59.507-184.28 59.507-107.5 0-173.4-60.147-173.4-143.33v-1.28c0-91.499 73.584-118.37 168.92-140.13 61.427-14.716 76.143-24.314 76.143-43.51v-1.28c0-19.196-17.916-30.713-51.828-30.713-51.829 0-100.46 18.556-145.25 53.748l-69.105-82.542c55.668-49.269 130.53-74.223 209.87-74.223m410.79 0c108.78 0 181.08 54.388 181.08 145.89v1.279c0 83.822-63.986 117.09-166.36 139.49-62.706 14.076-78.063 23.034-78.063 43.51v1.28c0 16.636 14.717 28.793 44.79 28.793 39.672 0 84.462-14.716 125.41-44.15l62.067 87.661c-48.629 39.031-108.14 59.507-184.28 59.507-107.5 0-173.4-60.147-173.4-143.33v-1.28c0-91.499 73.583-118.37 168.92-140.13 61.426-14.716 76.143-24.314 76.143-43.51v-1.28c0-19.196-17.916-30.713-51.829-30.713-51.828 0-100.46 18.556-145.25 53.748l-69.104-82.542c55.667-49.269 130.53-74.223 209.87-74.223m241.22 7.678h170.84c160.6 0 254.66 95.979 254.66 225.23v1.28c0 129.25-92.779 221.39-252.1 221.39h-173.4zm174.68 338.48c74.863 0 124.13-42.23 124.13-113.9v-1.279c0-72.304-49.269-113.26-124.13-113.26h-50.549v228.43z" fill="#fff"/>
     </g>
    </g>
   </g>
  </g>
 </g>
</svg>
