<?xml version="1.0" encoding="UTF-8"?>
<svg width="900" height="600" version="1.1" viewBox="0 0 238.12 158.75" xmlns="http://www.w3.org/2000/svg">
 <style type="text/css">.st0{fill:#63C3D1;}</style>
 <style type="text/css">.st0{fill:#63C3D1;}</style>
 <style type="text/css">.st0{fill:#fff;}</style>
 <style type="text/css">.st0{fill:#63C3D1;}</style>
 <style type="text/css">.st0{fill:#63C3D1;}</style>
 <style type="text/css">.st0{fill:#fff;}</style>
 <g transform="translate(-242.29 -151.34)" fill="#ec3513">
  <g transform="translate(-.0041 .00216)" fill="#ec3513">
   <g transform="matrix(.26458 0 0 .26458 242.29 151.34)" fill="#ec3513">
    <rect width="900" height="600" fill="#ef331a"/>
   </g>
  </g>
 </g>
 <path d="m180.03 68.366c7.3977 0 12.265 4.1728 12.265 11.254v0.12518c0 7.1455-4.8668 11.19-12.265 11.19h-4.9956v-22.569zm-17.258 33.443h16.879c15.869 0 25.16-9.4832 25.16-22.254v-0.12518c0-12.771-9.1666-21.875-24.906-21.875h-17.133zm-23.833 0.75837c10.748 0 17.892-5.373 17.892-14.414v-0.12518c0-8.283-6.3228-11.569-16.436-13.783-6.1975-1.3897-7.7143-2.2751-7.7143-4.298v-0.127c0-1.6437 1.4559-2.8439 4.425-2.8439 3.9189 0 8.3457 1.4541 12.392 4.3624l6.1314-8.6622c-4.8024-3.8545-10.682-5.8792-18.206-5.8792-10.621 0-17.131 5.9436-17.131 14.162v0.12518c0 9.0396 7.2689 11.696 16.69 13.846 6.0687 1.4523 7.5229 2.4003 7.5229 4.298v0.12701c0 1.8959-1.7707 3.0335-5.1208 3.0335-5.1208 0-9.9268-1.8333-14.35-5.3086l-6.8289 8.1525c5.5 4.8686 12.898 7.3351 20.735 7.3351m-40.585 0c10.748 0 17.891-5.373 17.891-14.414v-0.12518c0-8.283-6.3227-11.569-16.437-13.783-6.1957-1.3898-7.7125-2.2751-7.7125-4.298v-0.127c0-1.6437 1.4542-2.8439 4.425-2.8439 3.9207 0 8.3457 1.4541 12.392 4.3624l6.1314-8.6622c-4.8042-3.8545-10.683-5.8792-18.206-5.8792-10.621 0-17.131 5.9436-17.131 14.162v0.12518c0 9.0396 7.2689 11.696 16.69 13.846 6.0687 1.4523 7.5229 2.4003 7.5229 4.298v0.12701c0 1.8959-1.7707 3.0335-5.1208 3.0335-5.1208 0-9.9268-1.8333-14.352-5.3086l-6.8271 8.1525c5.5 4.8686 12.898 7.3351 20.735 7.3351m-29.142-58.098h-8.0935l-4.9938 3.3501-4.9938-3.3501h-8.1542l7.7751 9.4188h10.683zm-13.087 58.225c9.7354 0 15.362-4.2372 19.535-9.9894l-9.2293-6.5749c-2.6561 3.2249-5.3747 5.373-9.9894 5.373-6.1957 0-10.558-5.1834-10.558-11.819v-0.12878c0-6.4479 4.3624-11.758 10.558-11.758 4.2354 0 7.1437 2.0855 9.6728 5.1834l9.2292-7.1419c-3.9188-5.3748-9.7354-9.1666-18.775-9.1666-13.402 0-23.264 10.115-23.264 23.012v0.12518c0 13.212 10.177 22.885 22.821 22.885" fill="#fff"/>
</svg>
