<?xml version="1.0" encoding="UTF-8"?>
<svg width="900" height="600" version="1.1" viewBox="0 0 238.12 158.75" xmlns="http://www.w3.org/2000/svg">
 <style type="text/css">.st0{fill:#63C3D1;}</style>
 <style type="text/css">.st0{fill:#63C3D1;}</style>
 <style type="text/css">.st0{fill:#fff;}</style>
 <style type="text/css">.st0{fill:#63C3D1;}</style>
 <style type="text/css">.st0{fill:#63C3D1;}</style>
 <style type="text/css">.st0{fill:#fff;}</style>
 <g transform="translate(-242.29,-151.34)" fill="#ec3513">
  <g transform="translate(-.0041 .00216)" fill="#ec3513">
   <g transform="matrix(.26458 0 0 .26458 242.29 151.34)" fill="#ec3513">
    <rect width="900" height="600" fill="#ff5f60"/>
   </g>
  </g>
 </g>
 <g transform="matrix(.26526 0 0 -.26526 -534.95 308.23)">
  <g transform="scale(.5)">
   <path d="m5646.6 1605.8c0 32.26-25.09 56.73-57.25 56.73-32.46 0-59.8-25.29-59.8-58.27 0-33.897 27.55-58.678 60.73-58.678 23.04 0 43.32 8.808 53.25 30.828l-32.77 11.57c-4.3-7.0699-11.37-11.37-19.66-11.37-10.86 0-20.69 6.3501-22.74 17.41h77.63c0.51 3.8899 0.61 7.7799 0.61 11.78m-38.81 10.34h-38.92c2.05 9.01 10.45 15.98 19.77 15.98 10.04 0 17.71-5.8401 19.15-15.98m-89.9 81.82c0 12.81-10.13 23.36-23.24 23.36-12.9 0-23.25-10.45-23.25-23.36 0-12.59 10.55-22.93 23.25-22.93 13.01 0 23.24 10.44 23.24 22.93m-132.59-93.6c0 12.19 8.8 22.33 21.2 22.33 8.91 0 16.38-5.2301 19.25-13.83l35.23 10.76c-5.73 25.19-29.6 39.02-54.28 39.02-32.87 0-61.75-24.79-61.75-58.58 0-34.822 27.44-58.478 61.34-58.478 25.71 0 48.24 13.828 55.3 39.428l-35.23 10.55c-3.38-8.1-10.85-13.83-19.76-13.83-13.32 0-21.3 10.35-21.3 22.63m-91.02-56.321h37.89c-0.62 5.222-0.92 11.164-0.92 18.027v50.384c0 31.03-23.45 46.19-52.84 46.19-21.41 0-46.91-10.04-51.41-35.54l33.28-7.27c1.64 7.3701 8.4 12.29 16.69 12.29 10.04 0 14.96-5.3301 14.96-11.06 0-4.2999-2.98-6.87-8.09-6.87h-5.95c-23.75 0-53.04-8.0799-53.04-35.22 0-19.049 15.36-33.08 34.1-33.08 13.41 0 24.48 4.5081 33.9 15.465l0.4-0.309c0-3.89 0.31-9.32 1.03-13.007m-2.46 41.371c0-10.14-7.37-15.87-17-15.87-5.32 0-10.14 4.1-10.14 9.42 0 7.1699 7.27 9.83 13.32 9.83h13.82zm-72.11 272.71 35.94 41.17h-42.71l-23.55-41.17zm5.73-18.63h-40.66v-111.94h40.66zm-43.59-199.7h-0.3v16.18h-39.53v-111.93h39.94v46.081c0 21.1 12.18 28.47 28.77 28.47 0.62 0 5.33-0.1 9.73-0.92l0.1099 38.61c-2.77 0.51-6.25 0.72-7.38 0.72-6.66 0-22.43-1.95-31.34-17.21m-56.75 87.76h39.84v67.8c0 21.71-9.73 46.49-39.23 46.49-10.75 0-23.55-4.71-32.15-16.28h-0.31v13.93h-39.63v-111.94h39.84v60.63c0 11.06 6.65 17.21 16.28 17.21 9.73 0 15.36-7.89 15.36-17.21zm-38.46-71.58-33.7-46.39v105.38h-39.83v-170.92h39.83v54.481h0.82l33.59-54.481h46.7l-39.02 59.911 37.69 52.02zm-94.24 71.58h40.246v170.92h-40.246zm5.88-126.68c0 33.9-28.57 57.66-61.34 57.66s-62.16-24.58-62.16-58.58c0-34.2 27.85-58.47 61.34-58.47 33.59 0 62.16 24.988 62.16 59.39m-40.04-0.61c0-11.98-9.22-22.83-21.61-22.83s-21.81 10.75-21.81 22.83c0 12.19 9.32 22.63 21.71 22.63s21.71-10.44 21.71-22.63m-22.65 127.29h37.89c-0.62 5.23-0.93 11.16-0.93 18.03v50.38c0 31.03-23.45 46.19-52.84 46.19-21.4 0-46.9-10.04-51.41-35.54l33.29-7.2701c1.6401 7.37 8.3901 12.29 16.69 12.29 10.03 0 14.95-5.3199 14.95-11.06 0-4.3-2.97-6.8599-8.09-6.8599h-5.94c-23.76 0-53.05-8.0901-53.05-35.23 0-19.05 15.36-33.07 34.11-33.07 13.41 0 24.47 4.5 33.89 15.46l0.41-0.3099c0-3.8901 0.31-9.3201 1.03-13.01m-2.46 41.38c0-10.14-7.38-15.88-17-15.88-5.33 0-10.14 4.1001-10.14 9.43 0 7.16 7.27 9.83 13.31 9.83h13.83zm1.12 89.19 35.75 41.17h-42.4l-23.46-41.17zm-113.01-314.08h39.83v67.801c0 21.7-8.6 46.49-39.01 46.49-16.49 0-28.17-6.7601-37.89-17.51-5.74 10.13-15.67 17.51-31.85 17.51-10.86 0-23.56-4.71-32.06-16.29h-0.2v13.93h-39.63v-111.93h39.83v60.831c0 10.86 5.84 17 16.08 17 9.83 0 14.54-8.19 14.54-16.79v-61.041h39.74v61.041c0 10.85 5.84 16.79 16.07 16.79 9.84 0 14.55-7.99 14.55-16.59zm29.78 295.45h-40.144v-111.93h40.144zm3.17 37.99c0 12.8-10.14 23.35-23.25 23.35-12.9 0-23.24-10.45-23.24-23.35 0-12.6 10.55-22.94 23.24-22.94 13.01 0 23.25 10.45 23.25 22.94m-132.59-93.6c0 12.19 8.8 22.32 21.19 22.32 8.91 0 16.39-5.22 19.26-13.82l35.22 10.75c-5.73 25.19-29.59 39.02-54.27 39.02-32.88 0-61.75-24.78-61.75-58.58 0-34.82 27.44-58.47 61.34-58.47 25.7 0 48.23 13.82 55.3 39.42l-35.23 10.55c-3.38-8.09-10.86-13.82-19.77-13.82-13.31 0-21.29 10.34-21.29 22.63m-49.04 0.51c0 33.9-28.57 57.66-61.34 57.66s-62.16-24.58-62.16-58.58c0-34.2 27.85-58.47 61.34-58.47 33.59 0 62.16 24.98 62.16 59.39m-40.04-0.61c0-11.99-9.22-22.84-21.61-22.84s-21.81 10.75-21.81 22.84c0 12.18 9.32 22.63 21.71 22.63s21.71-10.45 21.71-22.63m-83.87-183.52c0-33.897 27.54-58.678 60.72-58.678 23.05 0 43.32 8.808 53.26 30.828l-32.77 11.57c-4.3-7.0699-11.37-11.37-19.67-11.37-10.85 0-20.68 6.3501-22.73 17.41h77.63c0.51 3.8899 0.61 7.7799 0.61 11.78 0 32.26-25.09 56.73-57.24 56.73-32.47 0-59.81-25.29-59.81-58.27m39.32 11.88c2.05 9.01 10.45 15.98 19.77 15.98 10.03 0 17.71-5.8401 19.15-15.98zm-132.6 232.57c0 6.5499 6.15 15.16 19.06 15.16 14.94 0 23.14-9.63 25.08-22.94l36.36 10.24c-2.97 21.6-19.97 47.41-61.24 47.41-32.06 0-60.42-21.91-60.42-53.05 0-26.11 19.15-43.11 46.18-48.33l22.64-4.4101c10.85-2.15 14.02-7.5799 14.02-13.1 0-6.87-5.42-15.67-20.27-15.67-14.95 0-29.19 7.07-31.85 26.62l-37.07-8.8c5.42-31.03 27.55-52.64 68.71-52.64 39.33 0 62.27 25.6 62.27 52.23 0 24.47-16.9 43.32-47.72 49.25l-23.56 4.5099c-9.62 1.84-12.19 8.0901-12.19 13.52m-46.49-244.45c0-31.948 22.22-58.471 52.33-58.471 6.46 0 20.79 1.328 32.26 15.972h0.82v-13.722h39.53v170.92h-39.84v-71.69h-0.82c-10.75 13.93-25.7 14.96-31.02 14.96-27.86 0-53.26-23.87-53.26-57.97m40.76 0c0 12.4 9.93 22.63 22.32 22.63 12.4 0 22.33-10.23 22.33-22.63 0-12.29-9.93-22.73-22.33-22.73-12.39 0-22.32 10.44-22.32 22.73m1065.1 55.71h-40.14v-111.93h40.14" fill="#fff"/>
   <path d="m4413.9 1923.9v129.55c0 17.68-14.33 32.01-32.01 32.01h-188.85v-289.6" fill="#fff"/>
   <path d="m4213.9 1940.8h19.91c18.52 0 33.46 10.42 33.46 30.14 0 19.94-14.86 29.76-33.5 29.76h-19.87zm15.13 46.05h4.86c9.78 0 17.88-5.53 17.88-15.99 0-10.64-7.92-16.09-17.96-16.09h-4.78zm45.48 13.85v-59.9h42.09v13.48h-27.11v10.31h24.46v12.92h-24.46v9.79h26.89v13.4zm103.82-21.81v-38.09h14.82l-0.03 59.9h-20.02l-14.08-36.75-14.71 36.75h-19.39v-59.9h14.49v37.65h0.15l14.75-37.65h9.3l14.61 38.09" fill="#ff5f60"/>
   <path d="m4239.8 2006.8c14.35 0 22.71 9.34 22.71 19.05 0 8.93-6.16 15.8-17.4 17.97l-8.59 1.64c-3.51 0.67-4.45 2.95-4.45 4.93 0 2.39 2.24 5.53 6.95 5.53 5.45 0 8.44-3.52 9.15-8.37l13.26 3.73c-1.08 7.89-7.28 17.3-22.34 17.3-11.69 0-22.03-8-22.03-19.35 0-9.52 6.99-15.72 16.84-17.63l8.25-1.6c3.97-0.79 5.12-2.77 5.12-4.78 0-2.51-1.97-5.72-7.39-5.72-5.46 0-10.65 2.58-11.62 9.71l-13.52-3.21c1.99-11.31 10.05-19.2 25.06-19.2m26.7 30.82c0-17.41 14.01-30.85 31.3-30.85s31.29 13.63 31.29 31.07c0 17.37-13.89 30.74-31.15 30.74-17.25 0-31.44-13.6-31.44-30.96m15.42 0.1099c0 8.89 6.76 16.73 15.91 16.73 9.11 0 15.88-7.84 15.88-16.73s-6.73-16.81-15.88-16.81-15.91 7.92-15.91 16.81m81.82-30.96c18.75 0 27.49 13.52 29.21 20.95l-14.19 4.44c-1.2-4.33-5.57-11.09-14.83-11.09-9.49 0-15.61 7.73-15.61 16.66 0 9.19 6.53 16.66 15.61 16.66 9.49 0 13.63-7.4 14.56-11.1l14.09 4.37c-2.13 8.11-10.35 20.92-28.43 20.92-18.3 0-31.29-13.97-31.29-30.96 0-17.56 13.59-30.85 30.88-30.85" fill="#ff5f60"/>
  </g>
 </g>
</svg>
